<?xml version="1.0" encoding="UTF-8"?> <!--Generator: Apple Native CoreSVG 232.5--> <!DOCTYPE svg PUBLIC "-//W3C//DTD SVG 1.1//EN"        "http://www.w3.org/Graphics/SVG/1.1/DTD/svg11.dtd"> <svg version="1.1" xmlns="http://www.w3.org/2000/svg" xmlns:xlink="http://www.w3.org/1999/xlink" width="13.7775" height="21.8509">  <g>   <rect height="21.8509" opacity="0" width="13.7775" x="0" y="0"/>   <path d="M13.3712 5.615L13.3712 17.4348C13.3712 19.1205 12.4906 20.0089 10.8298 20.0089L2.54 20.0089C0.879216 20.0089 0 19.1205 0 17.4348L0 5.615C0 3.92937 0.879216 3.04094 2.54 3.04094L2.63002 3.04094C2.61251 3.1428 2.60422 3.24958 2.60422 3.36L2.60422 4.18031C2.60422 4.30475 2.61494 4.42467 2.63573 4.53921L2.60671 4.53921C1.87718 4.53921 1.49827 4.93734 1.49827 5.63062L1.49827 17.4192C1.49827 18.1189 1.87718 18.5106 2.60671 18.5106L10.7645 18.5106C11.4927 18.5106 11.873 18.1189 11.873 17.4192L11.873 5.63062C11.873 4.93734 11.4927 4.53921 10.7645 4.53921L10.7342 4.53921C10.7549 4.42467 10.7656 4.30475 10.7656 4.18031L10.7656 3.36C10.7656 3.24958 10.7573 3.1428 10.7399 3.04094L10.8298 3.04094C12.4906 3.04094 13.3712 3.92937 13.3712 5.615Z" fill="#000000" fill-opacity="0.85"/>   <path d="M4.27718 4.98187L9.09265 4.98187C9.56265 4.98187 9.84593 4.68156 9.84593 4.18031L9.84593 3.36C9.84593 2.85734 9.56265 2.55844 9.09265 2.55844L8.43015 2.55844C8.37124 1.65031 7.61718 0.914687 6.68562 0.914687C5.75406 0.914687 5 1.65031 4.94109 2.55844L4.27718 2.55844C3.80859 2.55844 3.52531 2.85734 3.52531 3.36L3.52531 4.18031C3.52531 4.68156 3.80859 4.98187 4.27718 4.98187ZM6.68562 3.31187C6.305 3.31187 5.99609 2.99515 5.99609 2.62375C5.99609 2.23812 6.305 1.92922 6.68562 1.92922C7.06625 1.92922 7.37374 2.23812 7.37374 2.62375C7.37374 2.99515 7.06625 3.31187 6.68562 3.31187Z" fill="#000000" fill-opacity="0.85"/>   <path d="M3.36827 15.0703L6.76671 15.0703C7.06749 15.0703 7.31577 14.8234 7.31577 14.5212C7.31577 14.2205 7.0753 13.975 6.76671 13.975L3.36827 13.975C3.06109 13.975 2.81281 14.2205 2.81281 14.5212C2.81281 14.8234 3.06749 15.0703 3.36827 15.0703Z" fill="#000000" fill-opacity="0.85"/>   <path d="M3.36827 12.1555L10.0044 12.1555C10.313 12.1555 10.5584 11.91 10.5584 11.6014C10.5584 11.2992 10.3116 11.0602 10.0044 11.0602L3.36827 11.0602C3.06109 11.0602 2.81281 11.2992 2.81281 11.6014C2.81281 11.91 3.05827 12.1555 3.36827 12.1555Z" fill="#000000" fill-opacity="0.85"/>   <path d="M3.36827 9.39046L10.0044 9.39046C10.3052 9.39046 10.5584 9.14218 10.5584 8.8414C10.5584 8.53922 10.3052 8.28594 10.0044 8.28594L3.36827 8.28594C3.06749 8.28594 2.81281 8.53922 2.81281 8.8414C2.81281 9.14218 3.06749 9.39046 3.36827 9.39046Z" fill="#000000" fill-opacity="0.85"/>  </g> </svg>