<?xml version="1.0" encoding="UTF-8"?> <!--Generator: Apple Native CoreSVG 232.5--> <!DOCTYPE svg PUBLIC "-//W3C//DTD SVG 1.1//EN"        "http://www.w3.org/Graphics/SVG/1.1/DTD/svg11.dtd"> <svg version="1.1" xmlns="http://www.w3.org/2000/svg" xmlns:xlink="http://www.w3.org/1999/xlink" width="17.9895" height="17.9794">  <g>   <rect height="17.9794" opacity="0" width="17.9895" x="0" y="0"/>   <path d="M3.37364 16.6442C3.73896 16.928 4.19864 16.835 4.7252 16.4511L8.78911 13.4626L12.8566 16.4511C13.386 16.835 13.8379 16.928 14.2096 16.6442C14.5735 16.3683 14.6508 15.915 14.44 15.2997L12.8339 10.5247L16.9341 7.57812C17.4621 7.20343 17.6813 6.79484 17.5366 6.35359C17.3933 5.92375 16.9783 5.71234 16.3275 5.72156L11.299 5.75422L9.77098 0.952965C9.56801 0.325624 9.2488 0 8.78911 0C8.33443 0 8.01521 0.325624 7.81224 0.952965L6.28427 5.75422L1.25427 5.72156C0.604894 5.71234 0.189895 5.92375 0.046615 6.35218C-0.105884 6.79484 0.121146 7.20343 0.649113 7.57812L4.74927 10.5247L3.14318 15.2997C2.9324 15.915 3.01115 16.3683 3.37364 16.6442Z" fill="#000000" fill-opacity="0.85"/>  </g> </svg>