<?xml version="1.0" encoding="UTF-8"?> <!--Generator: Apple Native CoreSVG 232.5--> <!DOCTYPE svg PUBLIC "-//W3C//DTD SVG 1.1//EN"        "http://www.w3.org/Graphics/SVG/1.1/DTD/svg11.dtd"> <svg version="1.1" xmlns="http://www.w3.org/2000/svg" xmlns:xlink="http://www.w3.org/1999/xlink" width="17.9895" height="17.9794">  <g>   <rect height="17.9794" opacity="0" width="17.9895" x="0" y="0"/>   <path d="M3.37364 16.6442C3.73896 16.928 4.19864 16.835 4.7252 16.4511L8.78911 13.4626L12.8566 16.4511C13.386 16.835 13.8379 16.928 14.2096 16.6442C14.5735 16.3683 14.6508 15.915 14.44 15.2997L12.8339 10.5247L16.9341 7.57812C17.4621 7.20343 17.6813 6.79484 17.5366 6.35359C17.3933 5.92375 16.9783 5.71234 16.3275 5.72156L11.299 5.75422L9.77098 0.952965C9.56801 0.325624 9.2488 0 8.78911 0C8.33443 0 8.01521 0.325624 7.81224 0.952965L6.28427 5.75422L1.25427 5.72156C0.604894 5.71234 0.189895 5.92375 0.046615 6.35218C-0.105884 6.79484 0.121146 7.20343 0.649113 7.57812L4.74927 10.5247L3.14318 15.2997C2.9324 15.915 3.01115 16.3683 3.37364 16.6442ZM4.74473 14.7598C4.73051 14.7456 4.73551 14.7378 4.74332 14.6938L6.2277 10.4978C6.36379 10.1186 6.31535 9.87922 5.96317 9.64391L2.29191 7.12937C2.25566 7.10874 2.24785 7.09312 2.25426 7.07109C2.26066 7.05046 2.27769 7.04905 2.32176 7.04905L6.76708 7.15327C7.16754 7.16249 7.37629 7.03249 7.49333 6.63624L8.75145 2.37436C8.75927 2.3303 8.77349 2.31608 8.78911 2.31608C8.80974 2.31608 8.82395 2.3303 8.83177 2.37436L10.0899 6.63624C10.2069 7.03249 10.4157 7.16249 10.8175 7.15327L15.2643 7.04905C15.3083 7.04905 15.324 7.05046 15.3304 7.07109C15.3368 7.09312 15.3226 7.10734 15.2927 7.12937L11.6201 9.64531C11.2693 9.88062 11.2194 10.1186 11.3555 10.4978L12.8399 14.6938C12.8491 14.7378 12.8527 14.7456 12.8385 14.7598C12.8243 14.7819 12.8022 14.7677 12.7738 14.7456L9.24942 12.0303C8.93192 11.783 8.6513 11.783 8.3338 12.0303L4.80942 14.7456C4.78098 14.7677 4.75895 14.7819 4.74473 14.7598Z" fill="#000000" fill-opacity="0.85"/>  </g> </svg>