<?xml version="1.0" encoding="UTF-8"?> <!--Generator: Apple Native CoreSVG 232.5--> <!DOCTYPE svg PUBLIC "-//W3C//DTD SVG 1.1//EN"        "http://www.w3.org/Graphics/SVG/1.1/DTD/svg11.dtd"> <svg version="1.1" xmlns="http://www.w3.org/2000/svg" xmlns:xlink="http://www.w3.org/1999/xlink" width="12.9879" height="12.5923">  <g>   <rect height="12.5923" opacity="0" width="12.9879" x="0" y="0"/>   <path d="M0.250141 12.3415C0.589669 12.6732 1.16232 12.669 1.4856 12.3457L6.29154 7.53973L11.0947 12.3443C11.4236 12.6732 11.9956 12.6782 12.3287 12.3401C12.6619 12.0005 12.6633 11.4413 12.3344 11.111L7.53122 6.30005L12.3344 1.49692C12.6633 1.16802 12.6683 0.602398 12.3287 0.269275C11.9892-0.0702532 11.4236-0.0716594 11.0947 0.263651L6.29154 5.06678L1.4856 0.262244C1.16232-0.0660346 0.583263-0.0780657 0.250141 0.267869C-0.0815755 0.607398-0.0773569 1.17224 0.245922 1.49552L5.05187 6.30005L0.245922 11.1138C-0.0773569 11.4357-0.0879818 12.0083 0.250141 12.3415Z" fill="#000000" fill-opacity="0.85"/>  </g> </svg>